<svg width="80" height="70" viewBox="0 0 80 70" fill="none" xmlns="http://www.w3.org/2000/svg">
<path d="M40 11.0947L37.9892 13.04C38.0019 13.053 38.0145 13.0658 38.0272 13.0786L40 11.0947ZM45.469 20.5562C46.5589 21.6515 48.326 21.6512 49.4154 20.5555C50.5053 19.4598 50.5049 17.6837 49.4147 16.5884L45.469 20.5562ZM30.4225 59.0484C24.7828 54.5797 18.6161 50.2156 13.7239 44.6783C8.92733 39.2491 5.5814 32.9144 5.5814 24.6957H0C0 34.6651 4.13209 42.2708 9.55059 48.4035C14.8734 54.4282 21.6587 59.2478 26.9671 63.4543L30.4225 59.0484ZM5.5814 24.6957C5.5814 16.6511 10.1037 9.90491 16.2767 7.06863C22.2737 4.31321 30.3318 5.04291 37.9892 13.04L42.0108 9.14943C32.9247 -0.339415 22.378 -1.90329 13.9563 1.96617C5.71055 5.75482 0 14.5521 0 24.6957H5.5814ZM26.9671 63.4543C28.8731 64.9646 30.9192 66.5751 32.9927 67.7929C35.0657 69.0104 37.4311 70 40 70V64.3897C38.848 64.3897 37.4925 63.9383 35.8087 62.949C34.1258 61.9605 32.3798 60.5995 30.4225 59.0484L26.9671 63.4543ZM53.0329 63.4543C58.3412 59.2478 65.1267 54.4282 70.4495 48.4035C75.8679 42.2708 80 34.6651 80 24.6957H74.4186C74.4186 32.9144 71.0727 39.2491 66.2761 44.6783C61.3838 50.2156 55.2171 54.5797 49.5777 59.0484L53.0329 63.4543ZM80 24.6957C80 14.5521 74.2895 5.75482 66.0435 1.96617C57.622 -1.90329 47.0754 -0.339415 37.9892 9.14943L42.0108 13.04C49.6681 5.04291 57.7261 4.31321 63.7232 7.06863C69.8962 9.90491 74.4186 16.6511 74.4186 24.6957H80ZM49.5777 59.0484C47.6201 60.5995 45.8742 61.9605 44.1913 62.949C42.5075 63.9383 41.152 64.3897 40 64.3897V70C42.5689 70 44.9343 69.0104 47.0073 67.7929C49.0809 66.5751 51.1267 64.9646 53.0329 63.4543L49.5777 59.0484ZM38.0272 13.0786L45.469 20.5562L49.4147 16.5884L41.9728 9.11083L38.0272 13.0786Z" fill="#EC92A1"/>
</svg>
