<?xml version="1.0" ?>
<!-- Uploaded to: SVG Repo, www.svgrepo.com, Generator: SVG Repo Mixer Tools -->
<svg width="800px" height="800px" viewBox="0 0 512 512" id="Layer_1" version="1.1" xml:space="preserve" xmlns="http://www.w3.org/2000/svg" xmlns:xlink="http://www.w3.org/1999/xlink">
<style type="text/css">
	.st0{fill:#3B4652;}
	.st1{fill:#2B79C2;}
</style>
<g>
<path class="st1" d="M196,422.4H227c4.6,0,8.4-3.8,8.4-8.4v-38.2v-77.7c0-4.6-3.8-8.4-8.4-8.4h-29.7c-1.5,6-2.3,12.2-2.3,18.7   c0,19.6,7.3,37.4,19.4,50.9c-12.1,13.5-19.4,31.4-19.4,50.9C195,414.4,195.3,418.4,196,422.4z"/>
<path class="st1" d="M156.5,289.7h-29.7c-4.6,0-8.4,3.8-8.4,8.4v77.7V414c0,4.6,3.8,8.4,8.4,8.4h31.1c0.6-4,1-8,1-12.2   c0-19.6-7.3-37.4-19.4-50.9c12.1-13.5,19.4-31.4,19.4-50.9C158.8,302,158,295.7,156.5,289.7z"/>
<path class="st0" d="M493,198.3l-15.6-27.6h-57c-3.9,0-7-3.1-7-7c0-3.9,3.1-7,7-7h49.1l-24.6-43.5c-2.9-5.1-8.3-8.2-14.1-8.2H81.2   c-5.8,0-11.2,3.2-14.1,8.2l-11.6,20.5h52.9c3.9,0,7,3.1,7,7c0,3.9-3.1,7-7,7H47.6L19,198.3c-6.1,10.8,1.7,24.2,14.1,24.2h445.9   C491.4,222.5,499.2,209.1,493,198.3z M375.6,170.7h-18.1c-3.9,0-7-3.1-7-7c0-3.9,3.1-7,7-7h18.1c3.9,0,7,3.1,7,7   C382.6,167.6,379.5,170.7,375.6,170.7z"/>
<path class="st0" d="M52.3,236.5c-2,3.7-3.1,8-3.1,12.5V260h56c3.9,0,7,3.1,7,7c0,3.9-3.1,7-7,7h-56v11.1   c0,14.6,11.9,26.5,26.5,26.5h28.7v-13.4c0-12.4,10.1-22.4,22.4-22.4H227c12.4,0,22.4,10.1,22.4,22.4v13.4h37.7v-12.8   c0-5.7,4.6-10.3,10.3-10.3h82.2c5.7,0,10.3,4.6,10.3,10.3v12.8h42.7c14.6,0,26.5-11.9,26.5-26.5V274h-34.6c-3.9,0-7-3.1-7-7   c0-3.9,3.1-7,7-7H459v-11.1c0-4.5-1.1-8.8-3.1-12.5H52.3z M258.2,274h-7.8c-3.9,0-7-3.1-7-7c0-3.9,3.1-7,7-7h7.8c3.9,0,7,3.1,7,7   C265.2,270.9,262,274,258.2,274z M401.5,268.4c-0.1,0.5-0.2,0.9-0.4,1.3c-0.2,0.4-0.4,0.8-0.6,1.2c-0.3,0.4-0.5,0.7-0.9,1.1   c-1.3,1.3-3.1,2.1-4.9,2.1c-0.5,0-0.9,0-1.4-0.1c-0.5-0.1-0.9-0.2-1.3-0.4c-0.4-0.2-0.8-0.4-1.2-0.6c-0.4-0.3-0.7-0.5-1.1-0.9   c-1.3-1.3-2.1-3.1-2.1-4.9c0-1.8,0.8-3.6,2.1-4.9c0.3-0.3,0.7-0.6,1.1-0.9c0.4-0.3,0.8-0.5,1.2-0.6c0.4-0.2,0.9-0.3,1.3-0.4   c2.3-0.5,4.7,0.3,6.3,1.9c0.3,0.3,0.6,0.7,0.9,1.1c0.3,0.4,0.5,0.8,0.6,1.2c0.2,0.4,0.3,0.9,0.4,1.3c0.1,0.5,0.1,0.9,0.1,1.4   C401.7,267.5,401.6,267.9,401.5,268.4z"/>
<path class="st0" d="M104.4,386.6v-61.1H75.7c-7.2,0-13.9-1.9-19.8-5.2c-4.2,4.7-6.7,10.9-6.7,17.6v36.1c0,6.8,2.5,13,6.7,17.6   c5.8-3.3,12.6-5.2,19.8-5.2H104.4z"/>
<rect class="st0" height="61.1" width="37.7" x="249.4" y="325.5"/>
<path class="st0" d="M432.6,325.5h-42.7v61.1h42.7c7.2,0,13.9,1.9,19.8,5.2c4.2-4.7,6.7-10.9,6.7-17.6V338c0-6.8-2.5-12.9-6.7-17.6   C446.5,323.7,439.7,325.5,432.6,325.5z"/>
<path class="st0" d="M249.4,414c0,12.4-10.1,22.4-22.4,22.4h-18.7h-64.7h-16.9c-12.4,0-22.4-10-22.4-22.4v-13.4H75.7   c-14.6,0-26.5,11.9-26.5,26.5v11.1h34.6c3.9,0,7,3.1,7,7c0,3.9-3.1,7-7,7H49.2v11.1c0,14.6,11.9,26.5,26.5,26.5h211.5v-89.1h-37.7   V414z M118.4,452.1h-6.2c-3.9,0-7-3.1-7-7c0-3.9,3.1-7,7-7h6.2c3.9,0,7,3.1,7,7C125.4,449,122.2,452.1,118.4,452.1z M235.4,452.1   h-18.1c-3.9,0-7-3.1-7-7c0-3.9,3.1-7,7-7h18.1c3.9,0,7,3.1,7,7C242.4,449,239.3,452.1,235.4,452.1z"/>
<path class="st0" d="M432.6,400.6h-42.7v89.1h42.7c14.6,0,26.5-11.8,26.5-26.5v-14.5h-20.6c-3.9,0-7-3.1-7-7c0-3.9,3.1-7,7-7H459   v-7.6C459,412.4,447.2,400.6,432.6,400.6z"/>
<path class="st1" d="M279.9,62.2H293V91h82.6V62.2h13.1c3.9,0,7.1-3.2,7.1-7.1V29.4c0-3.9-3.2-7.1-7.1-7.1H279.9   c-3.9,0-7.1,3.2-7.1,7.1v25.7C272.8,59,276,62.2,279.9,62.2z"/>
</g>
</svg>